<svg width="14" height="12" viewBox="0 0 14 12" fill="none" xmlns="http://www.w3.org/2000/svg">
<path d="M11.031 3.00069L11.0289 2.99879C10.87 2.84968 10.6769 2.72601 10.4577 2.63925L10.4546 2.638C10.2261 2.5472 9.97746 2.49945 9.72398 2.5L9.71847 2.50002C9.35496 2.50001 9.01145 2.59542 8.72291 2.76383L8.72284 2.76388C8.65403 2.80403 8.59128 2.84659 8.53355 2.8914C7.63159 3.59137 6.37001 3.59137 5.46806 2.8914C5.41033 2.84659 5.34757 2.80403 5.27877 2.76388L5.27869 2.76383C4.99016 2.59542 4.64665 2.50001 4.28313 2.50001C4.01778 2.50001 3.77413 2.54775 3.54702 2.63801L3.54439 2.63906C3.3234 2.72659 3.13329 2.84827 2.97188 2.99952L2.96841 3.00277L2.96841 3.00277C2.81492 3.14606 2.69854 3.31084 2.62031 3.48464L11.031 3.00069ZM11.031 3.00069C11.1853 3.14515 11.3027 3.31113 11.382 3.48632C11.4633 3.66748 11.5005 3.84711 11.5 4.03176L11.5 4.03176V4.03916C11.5 4.19721 11.4664 4.42073 11.3496 4.71297L11.3473 4.71879M11.031 3.00069L11.3473 4.71879M4.93508 7.52877L4.93536 7.52902C5.71091 8.21428 6.48566 8.77873 6.99926 9.13189C7.066 9.086 7.13689 9.03672 7.2114 8.98425C7.72882 8.61984 8.39997 8.11561 9.0649 7.52877H4.93508ZM4.93508 7.52877C4.13164 6.81908 3.547 6.17271 3.15757 5.61735C2.91312 5.26813 2.75028 4.96228 2.65013 4.7123C2.53354 4.42039 2.5 4.19709 2.5 4.03916C2.5 3.84898 2.53858 3.66643 2.62023 3.48484L4.93508 7.52877ZM11.3473 4.71879C11.2516 4.95991 11.0904 5.26305 10.8428 5.61676L11.3473 4.71879ZM10.8426 5.61716C10.4532 6.1724 9.86878 6.8186 9.06562 7.52814L10.8426 5.61716Z" stroke="white" stroke-width="5" stroke-linejoin="round"/>
</svg>
